<svg width="132" height="32" viewBox="0 0 132 32" fill="none" xmlns="http://www.w3.org/2000/svg">
<path d="M3.84754 10.5141H30.7923C28.5773 4.40157 22.5564 0 15.4872 0C8.41892 0 2.39708 4.40066 0.182116 10.5141H3.84754ZM17.0375 20.3913C16.4502 19.6914 15.9308 18.9381 15.4863 18.1415C15.0426 18.9388 14.5202 19.6948 13.936 20.3913H0C2.05412 26.7843 8.21646 31.4433 15.4863 31.4433C22.7561 31.4433 28.9185 26.8035 30.9726 20.3913H17.0375Z" fill="#F2E437"/>
<path d="M9.08292 12.6055L7.47253 14.1982L5.86123 12.6055C5.72451 12.4714 5.53998 12.3963 5.3477 12.3963C5.15541 12.3963 4.97089 12.4714 4.83417 12.6055C4.69891 12.7404 4.62299 12.9229 4.62299 13.1132C4.62299 13.3034 4.69891 13.4859 4.83417 13.6209L6.44548 15.2127L4.83324 16.8073C4.69799 16.9422 4.62207 17.1247 4.62207 17.315C4.62207 17.5052 4.69799 17.6877 4.83324 17.8227C4.96992 17.9564 5.15425 18.0314 5.34631 18.0314C5.53837 18.0314 5.7227 17.9564 5.85938 17.8227L7.47161 16.229L9.08199 17.8227C9.21871 17.9567 9.40324 18.0319 9.59552 18.0319C9.7878 18.0319 9.97233 17.9567 10.109 17.8227C10.2445 17.6878 10.3206 17.5053 10.3206 17.315C10.3206 17.1246 10.2445 16.9421 10.109 16.8073L8.49959 15.2127L10.11 13.6199C10.2452 13.485 10.3211 13.3025 10.3211 13.1122C10.3211 12.922 10.2452 12.7395 10.11 12.6046C9.97329 12.4708 9.78897 12.3958 9.59691 12.3958C9.40485 12.3958 9.22052 12.4708 9.08384 12.6046L9.08292 12.6055ZM22.2757 18.9783C21.2839 18.978 20.3326 18.588 19.6305 17.8936C18.9283 17.1993 18.5325 16.2573 18.5298 15.2741C18.5516 14.3035 18.9558 13.38 19.6559 12.7012C20.356 12.0224 21.2964 11.6423 22.2757 11.6423C23.255 11.6423 24.1953 12.0224 24.8954 12.7012C25.5956 13.38 25.9998 14.3035 26.0215 15.2741C26.0419 17.325 24.3501 18.9783 22.2757 18.9783ZM22.2757 13.1223C21.6996 13.1226 21.1472 13.3492 20.7395 13.7526C20.3317 14.1559 20.1019 14.7031 20.1004 15.2741C20.1169 15.8351 20.3534 16.3677 20.7595 16.7587C21.1656 17.1497 21.7095 17.3685 22.2757 17.3685C22.8418 17.3685 23.3857 17.1497 23.7918 16.7587C24.198 16.3677 24.4344 15.8351 24.4509 15.2741C24.4517 14.9909 24.396 14.7104 24.2869 14.4487C24.1779 14.187 24.0176 13.9493 23.8154 13.7494C23.6131 13.5494 23.3729 13.3911 23.1087 13.2837C22.8444 13.1762 22.5613 13.1208 22.2757 13.1223Z" fill="white"/>
<path d="M104.542 10.795C104.542 11.2396 104.235 11.4618 103.622 11.4618H95.1703C94.5572 11.4618 94.2508 11.2093 94.2508 10.6936C94.2508 10.2188 94.5572 9.97649 95.1703 9.97649H103.765C104.286 9.98626 104.542 10.249 104.542 10.795ZM104.542 19.4448C104.542 19.8894 104.235 20.1117 103.622 20.1117H95.1703C94.5572 20.1117 94.2508 19.8592 94.2508 19.3439C94.2508 18.8691 94.5572 18.6263 95.1703 18.6263H103.765C104.286 18.6263 104.542 18.8993 104.542 19.4448ZM78.4412 9.95557C78.8906 9.95557 79.1153 10.2588 79.1153 10.8652V19.222C79.1153 19.8289 78.8601 20.1219 78.3492 20.1219C77.8688 20.1219 77.6235 19.8187 77.6235 19.2225V10.7136C77.6132 10.2086 77.889 9.95557 78.4412 9.95557ZM104.542 15.1603C104.542 15.6049 104.235 15.8272 103.622 15.8272H95.1703C94.5572 15.8272 94.2508 15.5747 94.2508 15.0692C94.2508 14.5944 94.5572 14.3516 95.1703 14.3516H103.765C104.286 14.3419 104.542 14.6144 104.542 15.1603ZM91.848 10.6634C91.848 10.7438 91.8175 10.9057 91.7561 11.1377C90.9999 11.886 88.4962 14.3921 84.2451 18.6566H91.0918C91.6031 18.717 91.8583 18.9393 91.8583 19.3132C91.8583 19.8489 91.552 20.1219 90.9487 20.1219H82.5792C81.9764 20.1219 81.6696 19.8894 81.6696 19.4146C81.6696 19.3639 81.7006 19.2225 81.7615 18.9798C82.5178 18.232 85.0219 15.7258 89.273 11.4614H82.5792C81.9764 11.4614 81.6696 11.2289 81.6696 10.7545C81.6696 10.249 81.9253 9.99649 82.4361 9.99649H91.0819C91.5928 10.0667 91.848 10.2895 91.848 10.6634ZM107.454 9.99603C107.893 9.99603 108.118 10.2992 108.118 10.8954V18.6566H115.343V10.754C115.343 10.249 115.619 9.99603 116.16 9.99603C116.6 9.99603 116.825 10.2992 116.825 10.8954V19.455C116.825 19.8592 116.518 20.0814 115.915 20.1219H107.311C106.953 20.1219 106.728 19.8489 106.636 19.3132V10.754C106.636 10.249 106.912 9.99603 107.454 9.99603ZM49.7955 10.8252C49.7955 11.2596 49.4887 11.4818 48.8859 11.4818H41.0376V18.6263H49.029C49.5403 18.6263 49.7955 18.8993 49.7955 19.435C49.7955 19.8694 49.4887 20.0917 48.8859 20.0917H40.2303C39.8212 20.0917 39.5965 19.7885 39.5557 19.1923V10.6834C39.5557 10.3299 39.8315 10.1076 40.3733 10.0165H49.0285C49.5399 10.0267 49.7955 10.2895 49.7955 10.8252ZM61.5985 9.99603H52.8917C52.3503 9.99603 52.074 10.249 52.074 10.754V19.3132C52.1561 19.8489 52.3808 20.1219 52.7486 20.1219H61.3536C61.9564 20.0814 62.2627 19.8592 62.2627 19.455V10.895C62.2627 10.2988 62.0484 9.99556 61.5985 9.99556V9.99603ZM53.556 11.4005H60.7813V18.6566H53.556V11.4009V11.4005ZM119.737 9.99649H119.839C120.207 9.99649 120.739 10.6127 121.423 11.8455C121.627 12.078 122.997 14.1396 125.511 18.0199H125.562C125.562 17.9594 127.279 15.3622 130.703 10.229C130.958 10.0672 131.132 9.98626 131.234 9.98626H131.326C131.643 9.98626 131.867 10.2285 132 10.7038V10.7945C132 10.9563 131.101 12.3612 129.313 15.0287C131.101 17.7269 132 19.1518 132 19.3034V19.4448C131.867 19.8894 131.643 20.1117 131.326 20.1117H131.234C130.846 20.1117 130.232 19.3639 129.404 17.8785C128.904 17.1912 128.587 16.7066 128.444 16.4136C128.413 16.4136 127.627 17.5651 126.093 19.8796C125.91 20.041 125.746 20.1219 125.603 20.1219H125.46C125.122 20.1219 124.489 19.3137 123.539 17.6967L122.629 16.4132C121.301 18.5556 120.483 19.7582 120.177 20.021L119.839 20.1117H119.737C119.41 20.1117 119.185 19.8694 119.062 19.3941V19.3034C119.062 19.1518 119.962 17.7269 121.75 15.0287V14.9785C120.105 12.6138 119.205 11.2191 119.062 10.7945V10.7038C119.196 10.2388 119.42 9.99649 119.737 9.99649ZM74.4762 18.6463H66.4543V10.8954C66.4543 10.2992 66.2291 9.99603 65.7896 9.99603C65.2482 9.99603 64.9724 10.249 64.9724 10.754V19.3541C64.9724 19.6271 65.0643 19.8294 65.2482 19.9503C65.3505 20.0517 65.4828 20.1121 65.6469 20.1121H74.3434C74.9566 20.1121 75.2629 19.8898 75.2629 19.4453C75.253 18.9095 74.9974 18.6463 74.4762 18.6463Z" fill="white"/>
</svg>
